<svg width="33" height="33" viewBox="0 0 33 33" fill="none" xmlns="http://www.w3.org/2000/svg">
<path d="M18.1962 0C20.0524 0.00494975 20.9945 0.0148492 21.8079 0.0379481L22.128 0.0494974C22.4975 0.0626967 22.8622 0.0791958 23.3027 0.0989948C25.0582 0.181491 26.2561 0.458677 27.3071 0.866206C28.396 1.28528 29.3134 1.85285 30.2307 2.76856C31.0697 3.59334 31.7189 4.59104 32.1331 5.69221C32.5406 6.7432 32.8178 7.94104 32.9003 9.6982C32.9201 10.1371 32.9366 10.5017 32.9498 10.8729L32.9597 11.193C32.9844 12.0048 32.9943 12.9469 32.9976 14.803L32.9993 16.0339V18.1953C33.0033 19.3987 32.9907 20.6022 32.9613 21.8053L32.9514 22.1254C32.9382 22.4966 32.9217 22.8612 32.9019 23.3001C32.8194 25.0573 32.5389 26.2535 32.1331 27.3061C31.72 28.4079 31.0707 29.4058 30.2307 30.2298C29.4057 31.0684 28.4081 31.7176 27.3071 32.1321C26.2561 32.5396 25.0582 32.8168 23.3027 32.8993C22.9112 32.9177 22.5196 32.9342 22.128 32.9488L21.8079 32.9587C20.9945 32.9818 20.0524 32.9934 18.1962 32.9967L16.9654 32.9983H14.8056C13.6016 33.0025 12.3976 32.9898 11.194 32.9604L10.8739 32.9505C10.4822 32.9356 10.0906 32.9186 9.69915 32.8993C7.94364 32.8168 6.74581 32.5396 5.69316 32.1321C4.59212 31.7186 3.59483 31.0693 2.77116 30.2298C1.93143 29.4053 1.28166 28.4075 0.867158 27.3061C0.459629 26.2551 0.182443 25.0573 0.0999468 23.3001C0.0815648 22.9086 0.0650655 22.517 0.0504494 22.1254L0.0422 21.8053C0.0117955 20.6022 -0.00195529 19.3987 0.000952002 18.1953V14.803C-0.00365286 13.5996 0.00844781 12.3961 0.0372503 11.193L0.0487996 10.8729C0.0619989 10.5017 0.0784981 10.1371 0.098297 9.6982C0.180793 7.94104 0.457978 6.74485 0.865508 5.69221C1.27982 4.58991 1.93089 3.5919 2.77281 2.76856C3.59627 1.92953 4.5929 1.28031 5.69316 0.866206C6.74581 0.458677 7.94199 0.181491 9.69915 0.0989948C10.138 0.0791958 10.5043 0.0626967 10.8739 0.0494974L11.194 0.0395979C12.3971 0.0102834 13.6005 -0.00236713 14.804 0.0016498L18.1962 0ZM16.5001 8.24958C14.3122 8.24958 12.2139 9.11873 10.6668 10.6658C9.11968 12.2129 8.25053 14.3112 8.25053 16.4992C8.25053 18.6871 9.11968 20.7854 10.6668 22.3325C12.2139 23.8796 14.3122 24.7487 16.5001 24.7487C18.688 24.7487 20.7863 23.8796 22.3334 22.3325C23.8805 20.7854 24.7497 18.6871 24.7497 16.4992C24.7497 14.3112 23.8805 12.2129 22.3334 10.6658C20.7863 9.11873 18.688 8.24958 16.5001 8.24958ZM16.5001 11.5494C17.1501 11.5493 17.7938 11.6772 18.3944 11.9259C18.9949 12.1745 19.5406 12.539 20.0003 12.9986C20.4601 13.4581 20.8247 14.0037 21.0736 14.6042C21.3224 15.2047 21.4506 15.8483 21.4507 16.4983C21.4508 17.1483 21.3229 17.792 21.0742 18.3926C20.8256 18.9932 20.4611 19.5389 20.0015 19.9986C19.542 20.4583 18.9964 20.823 18.3959 21.0718C17.7954 21.3207 17.1518 21.4488 16.5018 21.4489C15.189 21.4489 13.93 20.9274 13.0018 19.9992C12.0735 19.0709 11.552 17.8119 11.552 16.4992C11.552 15.1864 12.0735 13.9274 13.0018 12.9992C13.93 12.0709 15.189 11.5494 16.5018 11.5494M25.1638 5.7747C24.6168 5.7747 24.0923 5.99199 23.7055 6.37877C23.3187 6.76554 23.1014 7.29012 23.1014 7.8371C23.1014 8.38408 23.3187 8.90866 23.7055 9.29543C24.0923 9.68221 24.6168 9.89949 25.1638 9.89949C25.7108 9.89949 26.2354 9.68221 26.6221 9.29543C27.0089 8.90866 27.2262 8.38408 27.2262 7.8371C27.2262 7.29012 27.0089 6.76554 26.6221 6.37877C26.2354 5.99199 25.7108 5.7747 25.1638 5.7747Z" fill="#F37021"/>
</svg>
