<svg width="51" height="60" viewBox="0 0 51 60" fill="none" xmlns="http://www.w3.org/2000/svg">
<path d="M25.8037 0.822266C34.8837 0.822266 42.1899 7.96735 42.1899 16.7884V21.3254C47.2861 22.9161 50.9993 27.5296 50.9993 33.0398V47.6475C50.9993 54.4692 45.3438 60 38.3714 60H13.3291C6.35373 60 0.698242 54.4692 0.698242 47.6475V33.0398C0.698242 27.5296 4.41445 22.9161 9.5077 21.3254V16.7884C9.53776 7.96735 16.8439 0.822266 25.8037 0.822266ZM25.8337 34.5071C24.3906 34.5071 23.218 35.6538 23.218 37.0652V43.5928C23.218 45.0336 24.3906 46.1803 25.8337 46.1803C27.307 46.1803 28.4796 45.0336 28.4796 43.5928V37.0652C28.4796 35.6538 27.307 34.5071 25.8337 34.5071ZM25.8638 5.9679C19.7603 5.9679 14.7994 10.7901 14.7693 16.7296V20.6874H36.9282V16.7884C36.9282 10.8195 31.9673 5.9679 25.8638 5.9679Z" fill="#F37021"/>
</svg>
