<svg width="33" height="33" viewBox="0 0 33 33" fill="none" xmlns="http://www.w3.org/2000/svg">
<g clip-path="url(#clip0_24_1222)">
<path d="M16.5 0C25.6221 0 33 7.37786 33 16.5C33 25.6221 25.6221 33 16.5 33C7.37786 33 0 25.6221 0 16.5C0 7.37786 7.37786 0 16.5 0ZM13.4829 25.1979C20.79 25.1979 24.7971 19.14 24.7971 13.8836V13.365C25.575 12.7993 26.2586 12.0921 26.7771 11.2907C26.07 11.5971 25.2921 11.8093 24.4907 11.9271C25.3157 11.4321 25.9521 10.6543 26.235 9.735C25.4571 10.1829 24.6086 10.5129 23.7129 10.7014C22.9821 9.92357 21.945 9.45214 20.8136 9.45214C18.6214 9.45214 16.83 11.2436 16.83 13.4357C16.83 13.7421 16.8536 14.0486 16.9479 14.3314C13.6479 14.1664 10.7014 12.5871 8.745 10.1829C8.415 10.7721 8.20286 11.4557 8.20286 12.1864C8.20286 13.5536 8.91 14.7793 9.97071 15.4864C9.31071 15.4864 8.69786 15.2979 8.17929 14.9914V15.0386C8.17929 16.9714 9.54643 18.5743 11.3614 18.9514C11.0314 19.0457 10.6779 19.0929 10.3243 19.0929C10.065 19.0929 9.82929 19.0693 9.57 19.0221C10.065 20.6014 11.55 21.7564 13.2707 21.78C11.9036 22.8407 10.1829 23.4771 8.32071 23.4771C7.99071 23.4771 7.68429 23.4771 7.37786 23.43C9.12214 24.5614 11.22 25.2214 13.4593 25.2214" fill="#F37021"/>
</g>
<defs>
<clipPath id="clip0_24_1222">
<rect width="33" height="33" fill="white"/>
</clipPath>
</defs>
</svg>
