<svg width="51" height="61" viewBox="0 0 51 61" fill="none" xmlns="http://www.w3.org/2000/svg">
<path d="M27.2123 1.12096L47.1245 7.80182C49.3535 8.5461 50.8606 10.5936 50.8726 12.8882L50.9995 32.8102C51.0387 38.8497 48.837 44.7069 44.805 49.2961C42.9506 51.4024 40.5737 53.2117 37.5384 54.8296L26.8348 60.5515C26.4995 60.728 26.131 60.8192 25.7596 60.8222C25.3881 60.8251 25.0166 60.7368 24.6844 60.5632L13.8811 54.9738C10.8125 53.3823 8.41446 51.5995 6.54193 49.5226C2.4435 44.9805 0.166258 39.1498 0.126995 33.1014L7.25294e-05 13.1942C-0.0119349 10.8966 1.46797 8.83439 3.68481 8.0607L23.5216 1.14155C24.6995 0.723813 26.0133 0.714988 27.2123 1.12096ZM36.7344 22.4782C35.8434 21.6222 34.4088 21.628 33.53 22.4959L23.4243 32.4569L19.2866 28.4795C18.3957 27.6235 16.9641 27.6323 16.0822 28.5001C15.2033 29.368 15.2124 30.7624 16.1033 31.6184L21.8508 37.1491C22.2978 37.5786 22.8777 37.7904 23.4575 37.7846C24.0374 37.7815 24.6143 37.5639 25.0552 37.1285L36.7525 25.5966C37.6314 24.7287 37.6223 23.3343 36.7344 22.4782Z" fill="#F37021"/>
</svg>
