<svg width="26" height="26" viewBox="0 0 26 26" fill="none" xmlns="http://www.w3.org/2000/svg">
<g clip-path="url(#clip0_57_1629)">
<path d="M7.25879 13.001C7.26284 14.2016 7.41321 15.3973 7.70657 16.5615H12.3866V9.71484H7.64157C7.39191 10.7925 7.26352 11.8947 7.25879 13.001Z" fill="white"/>
<path d="M13.6143 9.71484V16.5615H18.2943C18.5998 15.3988 18.7623 14.2031 18.7781 13.001C18.7758 11.895 18.6498 10.7928 18.4026 9.71484H13.6143Z" fill="white"/>
<path d="M12.9999 1.44531C10.7144 1.44531 8.48028 2.12303 6.57997 3.39277C4.67967 4.66252 3.19857 6.46725 2.32396 8.57875C1.44934 10.6902 1.2205 13.0137 1.66638 15.2552C2.11225 17.4968 3.21281 19.5558 4.82889 21.1719C6.44496 22.788 8.50396 23.8885 10.7455 24.3344C12.9871 24.7803 15.3105 24.5514 17.422 23.6768C19.5335 22.8022 21.3382 21.3211 22.608 19.4208C23.8777 17.5205 24.5555 15.2863 24.5555 13.0009C24.5555 9.93614 23.338 6.99694 21.1709 4.82986C19.0038 2.66277 16.0646 1.44531 12.9999 1.44531ZM21.8255 17.847H19.211C18.7167 19.3946 17.9858 20.8563 17.0443 22.1803C16.3496 22.4831 15.6227 22.706 14.8777 22.8448C16.212 21.3949 17.2389 19.6899 17.8966 17.8325H13.621V22.9964H12.4005V17.847H8.10323C8.76003 19.7069 9.787 21.4144 11.1221 22.8664C10.3924 22.7292 9.68027 22.5112 8.99879 22.2164C8.05399 20.8813 7.323 19.4072 6.83212 17.847H4.17434C3.94362 17.4261 3.74329 16.9892 3.5749 16.5398H6.46379C6.19309 15.3794 6.05259 14.1924 6.0449 13.0009C6.0453 11.8964 6.16149 10.795 6.39156 9.71476H3.43767C3.58956 9.26661 3.77298 8.82977 3.98656 8.40754H6.73823C7.25454 6.68795 8.05525 5.06701 9.10712 3.61198C9.77414 3.33559 10.4691 3.13219 11.1799 3.00531C9.74316 4.54729 8.65885 6.38321 8.00212 8.38587H12.4005V2.88976H13.621V8.40754H18.0193C17.3638 6.40809 16.282 4.57477 14.8488 3.0342C15.5584 3.15192 16.2534 3.34563 16.9216 3.61198C17.9673 5.0565 18.7654 6.66494 19.2832 8.37142H22.006C22.2196 8.79367 22.403 9.2305 22.5549 9.67865H19.6227C19.8577 10.7704 19.9763 11.8841 19.9766 13.0009C19.9729 14.1994 19.8348 15.3937 19.5649 16.5614H22.4538C22.2751 17.0043 22.0651 17.4339 21.8255 17.847Z" fill="white"/>
</g>
<defs>
<clipPath id="clip0_57_1629">
<rect width="26" height="26" fill="white"/>
</clipPath>
</defs>
</svg>
