<svg width="46" height="46" viewBox="0 0 46 46" fill="none" xmlns="http://www.w3.org/2000/svg">
<g clip-path="url(#clip0_24_1224)">
<path fill-rule="evenodd" clip-rule="evenodd" d="M22.9997 7.66699C24.6384 7.66699 26.3193 7.70916 27.9485 7.77816L29.8728 7.87016L31.7148 7.97941L33.4398 8.09633L35.0153 8.21899C36.725 8.34986 38.3339 9.07947 39.5588 10.2795C40.7837 11.4795 41.5462 13.073 41.7121 14.7797L41.7888 15.5943L41.9325 17.3385C42.0667 19.1459 42.1663 21.1162 42.1663 23.0003C42.1663 24.8844 42.0667 26.8547 41.9325 28.6622L41.7888 30.4063C41.7638 30.6862 41.7389 30.9564 41.7121 31.2209C41.5461 32.9279 40.7833 34.5217 39.558 35.7217C38.3327 36.9218 36.7234 37.6512 35.0133 37.7817L33.4417 37.9024L31.7167 38.0212L29.8728 38.1305L27.9485 38.2225C26.2999 38.2941 24.6499 38.3312 22.9997 38.3337C21.3495 38.3312 19.6995 38.2941 18.0508 38.2225L16.1265 38.1305L14.2846 38.0212L12.5596 37.9024L10.9841 37.7817C9.27433 37.6508 7.66548 36.9212 6.44058 35.7212C5.21568 34.5212 4.45319 32.9276 4.28726 31.2209L4.21059 30.4063L4.06684 28.6622C3.92029 26.7783 3.84229 24.8898 3.83301 23.0003C3.83301 21.1162 3.93267 19.1459 4.06684 17.3385L4.21059 15.5943C4.23551 15.3145 4.26042 15.0442 4.28726 14.7797C4.45313 13.0733 5.21534 11.48 6.43985 10.2801C7.66436 9.0801 9.27275 8.35029 10.9822 8.21899L12.5558 8.09633L14.2808 7.97941L16.1246 7.87016L18.0489 7.77816C19.6982 7.70654 21.3488 7.66947 22.9997 7.66699ZM19.1663 18.3524V27.6482C19.1663 28.5337 20.1247 29.0857 20.8913 28.6449L28.9413 23.997C29.1165 23.8962 29.262 23.7509 29.3632 23.576C29.4644 23.401 29.5176 23.2024 29.5176 23.0003C29.5176 22.7982 29.4644 22.5997 29.3632 22.4247C29.262 22.2497 29.1165 22.1045 28.9413 22.0037L20.8913 17.3577C20.7165 17.2567 20.5181 17.2036 20.3162 17.2036C20.1142 17.2036 19.9159 17.2568 19.741 17.3578C19.5662 17.4589 19.421 17.6041 19.3201 17.7791C19.2193 17.954 19.1662 18.1524 19.1663 18.3543V18.3524Z" fill="#F37021"/>
</g>
<defs>
<clipPath id="clip0_24_1224">
<rect width="46" height="46" fill="white"/>
</clipPath>
</defs>
</svg>
